<?xml version="1.0" standalone="no"?>
<!DOCTYPE svg PUBLIC "-//W3C//DTD SVG 20010904//EN"
 "http://www.w3.org/TR/2001/REC-SVG-20010904/DTD/svg10.dtd">
<svg version="1.0" xmlns="http://www.w3.org/2000/svg"
 width="100.000000pt" height="100.000000pt" viewBox="0 0 100.000000 100.000000"
 preserveAspectRatio="xMidYMid meet">
<metadata>
Created by potrace 1.13, written by Peter Selinger 2001-2015
</metadata>
<g transform="translate(0.000000,100.000000) scale(0.100000,-0.100000)"
fill="#000000" stroke="none">
<path d="M78 789 c-7 -21 -22 -36 -44 -45 l-34 -14 0 -230 0 -230 34 -14 c22
-9 37 -24 44 -45 l11 -31 411 0 411 0 11 31 c7 21 22 36 44 45 l34 14 0 230 0
230 -34 14 c-22 9 -37 24 -44 45 l-11 31 -411 0 -411 0 -11 -31z m722 -209 c0
-20 -7 -20 -300 -20 -293 0 -300 0 -300 20 0 20 7 20 300 20 293 0 300 0 300
-20z m0 -160 c0 -20 -7 -20 -300 -20 -293 0 -300 0 -300 20 0 20 7 20 300 20
293 0 300 0 300 -20z"/>
</g>
</svg>
